<?xml version="1.0" encoding="UTF-8" standalone="no" ?>
<!DOCTYPE svg PUBLIC "-//W3C//DTD SVG 1.1//EN" "http://www.w3.org/Graphics/SVG/1.1/DTD/svg11.dtd">
<svg xmlns="http://www.w3.org/2000/svg" xmlns:xlink="http://www.w3.org/1999/xlink" version="1.1" width="500" height="500" viewBox="0 0 500 500" xml:space="preserve">
<desc>Created with Fabric.js 4.6.0</desc>
<defs>
</defs>
<g transform="matrix(1.94 0 0 1.94 250 250)" id="LmqerE0TjlQ17NeNecyoU"  >
<path style="stroke: rgb(126,182,35); stroke-width: 0; stroke-dasharray: none; stroke-linecap: butt; stroke-dashoffset: 0; stroke-linejoin: miter; stroke-miterlimit: 4; fill: rgb(0,0,0); fill-rule: nonzero; opacity: 1;" vector-effect="non-scaling-stroke"  transform=" translate(0, 0)" d="M 0 -128.74871 C 71.06929 -128.74871 128.74871 -71.06929 128.74871 0 C 128.74871 71.06929 71.06929 128.74871 0 128.74871 C -71.06929 128.74871 -128.74871 71.06929 -128.74871 0 C -128.74871 -71.06929 -71.06929 -128.74871 0 -128.74871 z" stroke-linecap="round" />
</g>
<g transform="matrix(4.18 0 0 4.18 250 250)" id="d04Opy6sJlCWVrFi7mkyD"  >
<path style="stroke: rgb(48,128,58); stroke-width: 0; stroke-dasharray: none; stroke-linecap: butt; stroke-dashoffset: 0; stroke-linejoin: miter; stroke-miterlimit: 4; fill: rgb(255,255,255); fill-rule: nonzero; opacity: 1;" vector-effect="non-scaling-stroke"  transform=" translate(0, 0)" d="M 0 -46.01861 C 25.40227 -46.01861 46.01861 -25.40227 46.01861 0 C 46.01861 25.40227 25.40227 46.01861 0 46.01861 C -25.40227 46.01861 -46.01861 25.40227 -46.01861 0 C -46.01861 -25.40227 -25.40227 -46.01861 0 -46.01861 z" stroke-linecap="round" />
</g>
<g transform="matrix(1 0 0 1 127.59 127.59)" id="CsGKDlyaXVE3Cv3iTHT0T"  >
<path style="stroke: rgb(255,255,255); stroke-width: 1; stroke-dasharray: none; stroke-linecap: butt; stroke-dashoffset: 0; stroke-linejoin: miter; stroke-miterlimit: 4; fill: rgb(255,255,255); fill-opacity: 0; fill-rule: nonzero; opacity: 1;" vector-effect="non-scaling-stroke"  transform=" translate(0, 0)" d="M 0 0" stroke-linecap="round" />
</g>
<g transform="matrix(1 0 0 1 242.24 243.54)" id="GD6jxuU-hHcSF3iN1BZma"  >
<path style="stroke: rgb(255,255,255); stroke-width: 0; stroke-dasharray: none; stroke-linecap: butt; stroke-dashoffset: 0; stroke-linejoin: miter; stroke-miterlimit: 4; fill: rgb(255,255,255); fill-rule: nonzero; opacity: 1;" vector-effect="non-scaling-stroke"  transform=" translate(-65.15, -65.15)" d="M 65.14994 0 C 101.11270999999999 0 130.29988 29.18717 130.29988 65.14994 C 130.29988 101.11270999999999 101.11271 130.29988 65.14994 130.29988 C 29.187170000000002 130.29988 0 101.11271 0 65.14994 C 0 29.187170000000002 29.18717 0 65.14994 0 z" stroke-linecap="round" />
</g>
<g transform="matrix(3.28 0 0 3.28 250 250)" id="65nMGaBqS3eqc9mgZQhcz"  >
<path style="stroke: rgb(255,255,255); stroke-width: 0; stroke-dasharray: none; stroke-linecap: butt; stroke-dashoffset: 0; stroke-linejoin: miter; stroke-miterlimit: 4; fill: rgb(0,0,0); fill-rule: nonzero; opacity: 1;" vector-effect="non-scaling-stroke"  transform=" translate(0, 0)" d="M 0 -55.84281 C 30.82523 -55.84281 55.84281 -30.82523 55.84281 0 C 55.84281 30.82523 30.82523 55.84281 0 55.84281 C -30.82523 55.84281 -55.84281 30.82523 -55.84281 0 C -55.84281 -30.82523 -30.82523 -55.84281 0 -55.84281 z" stroke-linecap="round" />
</g>
<g transform="matrix(3.55 0 0 3.55 250 250)" id="SOiwy1WMDY2QJZpSYcsCX"  >
<path style="stroke: rgb(255,255,255); stroke-width: 0; stroke-dasharray: none; stroke-linecap: butt; stroke-dashoffset: 0; stroke-linejoin: miter; stroke-miterlimit: 4; fill: rgb(255,255,255); fill-rule: nonzero; opacity: 1;" vector-effect="non-scaling-stroke"  transform=" translate(0, 0)" d="M 0 -48.60393 C 26.82937 -48.60393 48.60393 -26.829369999999997 48.60393 0 C 48.60393 26.82937 26.829369999999997 48.60393 0 48.60393 C -26.82937 48.60393 -48.60393 26.829369999999997 -48.60393 0 C -48.60393 -26.82937 -26.829369999999997 -48.60393 0 -48.60393 z" stroke-linecap="round" />
</g>
<g transform="matrix(4.45 0 0 4.45 250 250)" id="0VqoHh7vYvU3Ug_W3LWuK"  >
<path style="stroke: none; stroke-width: 1; stroke-dasharray: none; stroke-linecap: butt; stroke-dashoffset: 0; stroke-linejoin: miter; stroke-miterlimit: 4; fill: rgb(0,0,0); fill-rule: nonzero; opacity: 1;" vector-effect="non-scaling-stroke"  transform=" translate(-40, -40)" d="M 2.246 47.549 L 13.559000000000001 47.549 C 14.398000000000001 47.549 15.151000000000002 48.073 15.431000000000001 48.854 C 15.707 49.619 16.021 50.378 16.366 51.11 C 16.719 51.861 16.558 52.765 15.965 53.358 L 7.965 61.358 C 7.5409999999999995 61.782 7.3069999999999995 62.346 7.3069999999999995 62.946 C 7.3069999999999995 63.546 7.5409999999999995 64.11 7.965 64.53399999999999 L 15.466000000000001 72.035 C 15.89 72.459 16.454 72.693 17.054000000000002 72.693 C 17.654000000000003 72.693 18.218000000000004 72.459 18.642000000000003 72.035 L 26.642000000000003 64.035 C 27.222 63.455 28.152000000000005 63.287 28.890000000000004 63.63399999999999 C 29.623000000000005 63.97899999999999 30.383000000000003 64.294 31.146000000000004 64.568 C 31.926000000000005 64.849 32.45100000000001 65.602 32.45100000000001 66.441 L 32.45100000000001 77.754 C 32.45100000000001 78.992 33.458000000000006 80 34.696000000000005 80 L 45.304 80 C 46.542 80 47.550000000000004 78.993 47.550000000000004 77.754 L 47.550000000000004 66.441 C 47.550000000000004 65.602 48.074000000000005 64.849 48.854000000000006 64.568 C 49.61800000000001 64.29299999999999 50.37700000000001 63.979 51.111000000000004 63.634 C 51.848000000000006 63.287 52.779 63.455 53.359 64.035 L 61.359 72.035 C 61.783 72.459 62.347 72.693 62.947 72.693 C 63.547000000000004 72.693 64.111 72.459 64.535 72.035 L 72.036 64.53399999999999 C 72.46000000000001 64.10999999999999 72.694 63.54599999999999 72.694 62.94599999999999 C 72.694 62.34599999999999 72.461 61.78199999999999 72.036 61.35799999999999 L 64.036 53.35799999999999 C 63.443 52.764999999999986 63.282000000000004 51.86099999999999 63.635 51.10999999999999 C 63.979 50.37799999999999 64.294 49.61899999999999 64.569 48.85399999999999 C 64.85000000000001 48.07399999999999 65.60300000000001 47.54899999999999 66.44200000000001 47.54899999999999 L 77.75500000000001 47.54899999999999 C 78.99300000000001 47.54899999999999 80.001 46.541999999999994 80.001 45.30299999999999 L 80.001 34.696 C 80.001 33.458 78.994 32.449999999999996 77.75500000000001 32.449999999999996 L 66.441 32.449999999999996 C 65.602 32.449999999999996 64.849 31.925999999999995 64.569 31.144999999999996 C 64.293 30.379999999999995 63.979 29.620999999999995 63.634 28.888999999999996 C 63.281 28.137999999999995 63.442 27.233999999999995 64.035 26.640999999999995 L 72.035 18.640999999999995 C 72.459 18.216999999999995 72.693 17.652999999999995 72.693 17.052999999999994 C 72.693 16.452999999999992 72.459 15.888999999999994 72.035 15.464999999999993 L 64.53399999999999 7.963999999999992 C 64.10999999999999 7.539999999999992 63.54599999999999 7.305999999999992 62.94599999999999 7.305999999999992 C 62.34599999999999 7.305999999999992 61.78199999999999 7.539999999999992 61.35799999999999 7.963999999999992 L 53.35799999999999 15.963999999999992 C 52.77799999999999 16.54399999999999 51.84799999999999 16.711999999999993 51.10999999999999 16.36499999999999 C 50.376999999999995 16.019999999999992 49.61699999999999 15.704999999999991 48.85399999999999 15.430999999999992 C 48.07399999999999 15.149999999999991 47.54899999999999 14.396999999999991 47.54899999999999 13.557999999999993 L 47.54899999999999 2.246 C 47.549 1.007 46.542 0 45.304 0 L 34.696 0 C 33.458 0 32.449999999999996 1.007 32.449999999999996 2.246 L 32.449999999999996 13.559000000000001 C 32.449999999999996 14.398000000000001 31.925999999999995 15.151000000000002 31.145999999999997 15.432 C 30.381999999999998 15.707 29.622999999999998 16.021 28.888999999999996 16.366 C 28.151999999999997 16.713 27.220999999999997 16.544999999999998 26.640999999999995 15.965 L 18.640999999999995 7.965 C 18.216999999999995 7.5409999999999995 17.652999999999995 7.3069999999999995 17.052999999999994 7.3069999999999995 C 16.452999999999992 7.3069999999999995 15.888999999999994 7.5409999999999995 15.464999999999993 7.965 L 7.963999999999992 15.466000000000001 C 7.539999999999992 15.89 7.305999999999992 16.454 7.305999999999992 17.054000000000002 C 7.305999999999992 17.654000000000003 7.538999999999992 18.218000000000004 7.963999999999992 18.642000000000003 L 15.963999999999992 26.642000000000003 C 16.55699999999999 27.235000000000003 16.717999999999993 28.139000000000003 16.36499999999999 28.890000000000004 C 16.02099999999999 29.622000000000003 15.70599999999999 30.381000000000004 15.430999999999992 31.146000000000004 C 15.149999999999991 31.926000000000005 14.396999999999991 32.45100000000001 13.557999999999993 32.45100000000001 L 2.246 32.45100000000001 C 1.007 32.451 0 33.458 0 34.696 L 0 45.304 C 0 46.542 1.007 47.549 2.246 47.549 z M 40 27.717 C 46.784 27.717 52.283 33.216 52.283 40 C 52.283 46.784 46.784 52.283 40 52.283 C 33.216 52.283 27.717 46.784 27.717 40 C 27.717 33.216 33.216 27.717 40 27.717 z" stroke-linecap="round" />
</g>
<g transform="matrix(3.01 0 0 3.01 250 250)" id="mGxdCTspXmPMR04cSNRK_"  >
<path style="stroke: rgb(255,255,255); stroke-width: 0; stroke-dasharray: none; stroke-linecap: butt; stroke-dashoffset: 0; stroke-linejoin: miter; stroke-miterlimit: 4; fill: rgb(0,0,0); fill-rule: nonzero; opacity: 1;" vector-effect="non-scaling-stroke"  transform=" translate(0, 0)" d="M 0 -14.21924 C 7.84902 -14.21924 14.21924 -7.849019999999999 14.21924 0 C 14.21924 7.84902 7.849019999999999 14.21924 0 14.21924 C -7.84902 14.21924 -14.21924 7.849019999999999 -14.21924 0 C -14.21924 -7.84902 -7.849019999999999 -14.21924 0 -14.21924 z" stroke-linecap="round" />
</g>
<g transform="matrix(3.08 0 0 3.08 375.08 374.92)" id="kkuqf0te9vMj-t7m7WLbi"  >
<g style="" vector-effect="non-scaling-stroke"   >
		<g transform="matrix(1 0 0 1 0 0)" id="YQrmGE5AZm5uX3u_c9scx"  >
<path style="stroke: none; stroke-width: 1; stroke-dasharray: none; stroke-linecap: butt; stroke-dashoffset: 0; stroke-linejoin: miter; stroke-miterlimit: 4; fill: rgb(179,181,179); fill-rule: nonzero; opacity: 1;" vector-effect="non-scaling-stroke"  transform=" translate(-39.98, -40.03)" d="M 61.1 50.6 C 69.1 37.8 67.6 20.8 56.5 9.700000000000003 C 43.5 -3.1999999999999975 22.6 -3.1999999999999975 9.700000000000003 9.700000000000003 C -3.1999999999999957 22.6 -3.1999999999999975 43.6 9.700000000000003 56.5 C 20.800000000000004 67.6 37.900000000000006 69.1 50.6 61.1 L 67.3 78 C 70 80.7 74.5 80.7 77.2 78 L 77.9 77.3 C 80.60000000000001 74.6 80.60000000000001 70.1 77.9 67.39999999999999 C 77.9 67.3 61.1 50.6 61.1 50.6 z" stroke-linecap="round" />
</g>
		<g transform="matrix(1 0 0 1 -6.98 -6.99)" id="qmFODGQknciF8YJX1LPpa"  >
<path style="stroke: none; stroke-width: 1; stroke-dasharray: none; stroke-linecap: butt; stroke-dashoffset: 0; stroke-linejoin: miter; stroke-miterlimit: 4; fill: rgb(255,255,255); fill-rule: nonzero; opacity: 1;" vector-effect="non-scaling-stroke"  transform=" translate(-33, -33.04)" d="M 16 16 C 6.6 25.4 6.6 40.6 16 50 C 25.4 59.4 40.6 59.4 50 50 C 59.4 40.6 59.4 25.4 50 16 C 40.7 6.7 25.4 6.7 16 16 z" stroke-linecap="round" />
</g>
		<g transform="matrix(1 0 0 1 2.38 -16.23)" id="9ODKDMOy5ObfkqVExWzuu"  >
<path style="stroke: none; stroke-width: 1; stroke-dasharray: none; stroke-linecap: butt; stroke-dashoffset: 0; stroke-linejoin: miter; stroke-miterlimit: 4; fill: rgb(179,181,179); fill-rule: nonzero; opacity: 1;" vector-effect="non-scaling-stroke"  transform=" translate(-42.35, -23.8)" d="M 51.1 32.6 L 46.6 32.6 C 46.6 25.400000000000002 40.800000000000004 19.6 33.6 19.6 L 33.6 15 C 43.2 15 51.1 22.9 51.1 32.6 z" stroke-linecap="round" />
</g>
</g>
</g>
</svg>